<svg width="20" height="20" viewBox="0 0 20 20" fill="none" xmlns="http://www.w3.org/2000/svg">
<path fill-rule="evenodd" clip-rule="evenodd" d="M9.99984 18.3332C14.6022 18.3332 18.3332 14.6022 18.3332 9.99984C18.3332 5.39746 14.6022 1.6665 9.99984 1.6665C5.39746 1.6665 1.6665 5.39746 1.6665 9.99984C1.6665 14.6022 5.39746 18.3332 9.99984 18.3332ZM10.3912 7.0579C10.6353 6.81382 11.031 6.81382 11.2751 7.0579L13.7751 9.5579C14.0192 9.80197 14.0192 10.1977 13.7751 10.4418L11.2751 12.9418C11.031 13.1859 10.6353 13.1859 10.3912 12.9418C10.1472 12.6977 10.1472 12.302 10.3912 12.0579L11.8243 10.6248H6.6665C6.32133 10.6248 6.0415 10.345 6.0415 9.99984C6.0415 9.65466 6.32133 9.37484 6.6665 9.37484H11.8243L10.3912 7.94178C10.1472 7.6977 10.1472 7.30197 10.3912 7.0579Z" fill="#64748B"/>
</svg>
