<svg width="28" height="28" viewBox="0 0 28 28" fill="none" xmlns="http://www.w3.org/2000/svg">
<path fill-rule="evenodd" clip-rule="evenodd" d="M11.1913 3.73381C10.9072 3.97593 10.7651 4.097 10.6134 4.19869C10.2656 4.4318 9.87503 4.59358 9.46428 4.67467C9.28509 4.71005 9.09904 4.7249 8.72692 4.75459C7.79197 4.8292 7.3245 4.86651 6.93449 5.00426C6.03242 5.32288 5.32288 6.03242 5.00426 6.93449C4.86651 7.3245 4.8292 7.79197 4.75459 8.72692C4.7249 9.09904 4.71005 9.28509 4.67467 9.46428C4.59358 9.87503 4.4318 10.2656 4.19869 10.6134C4.097 10.7651 3.97594 10.9072 3.73381 11.1913C3.12547 11.9052 2.82128 12.2621 2.64291 12.6353C2.23036 13.4984 2.23036 14.5019 2.64291 15.365C2.82129 15.7382 3.12546 16.0952 3.73381 16.809C3.97591 17.0931 4.09701 17.2352 4.19869 17.3869C4.4318 17.7347 4.59358 18.1253 4.67467 18.536C4.71005 18.7152 4.7249 18.9013 4.75459 19.2734C4.8292 20.2084 4.86651 20.6758 5.00426 21.0658C5.32288 21.9679 6.03242 22.6774 6.93449 22.9961C7.3245 23.1338 7.79197 23.1711 8.72692 23.2457C9.09904 23.2754 9.28509 23.2903 9.46428 23.3257C9.87503 23.4067 10.2656 23.5685 10.6134 23.8016C10.7651 23.9033 10.9072 24.0244 11.1913 24.2665C11.9052 24.8749 12.2621 25.179 12.6353 25.3574C13.4984 25.77 14.5019 25.77 15.365 25.3574C15.7382 25.179 16.0952 24.8749 16.809 24.2665C17.0931 24.0244 17.2352 23.9033 17.3869 23.8016C17.7347 23.5685 18.1253 23.4067 18.536 23.3257C18.7152 23.2903 18.9013 23.2754 19.2734 23.2457C20.2083 23.1711 20.6758 23.1338 21.0658 22.9961C21.9679 22.6774 22.6774 21.9679 22.9961 21.0658C23.1338 20.6758 23.1711 20.2084 23.2457 19.2734C23.2754 18.9013 23.2903 18.7152 23.3257 18.536C23.4067 18.1253 23.5685 17.7347 23.8016 17.3869C23.9033 17.2352 24.0244 17.0931 24.2665 16.809C24.8749 16.0952 25.179 15.7382 25.3574 15.365C25.77 14.5019 25.77 13.4984 25.3574 12.6353C25.179 12.2621 24.8749 11.9052 24.2665 11.1913C24.0244 10.9072 23.9033 10.7651 23.8016 10.6134C23.5685 10.2656 23.4067 9.87503 23.3257 9.46428C23.2903 9.28509 23.2754 9.09904 23.2457 8.72692C23.1711 7.79197 23.1338 7.3245 22.9961 6.93449C22.6774 6.03242 21.9679 5.32288 21.0658 5.00426C20.6758 4.86651 20.2084 4.8292 19.2734 4.75459C18.9013 4.7249 18.7152 4.71005 18.536 4.67467C18.1253 4.59358 17.7347 4.4318 17.3869 4.19869C17.2352 4.097 17.0931 3.97594 16.809 3.73381C16.0952 3.12546 15.7382 2.82129 15.365 2.64291C14.5019 2.23036 13.4984 2.23036 12.6353 2.64291C12.2621 2.82128 11.9052 3.12547 11.1913 3.73381ZM19.1026 11.5072C19.4734 11.1363 19.4734 10.5352 19.1026 10.1644C18.7318 9.79355 18.1306 9.79355 17.7598 10.1644L12.1011 15.823L10.2405 13.9624C9.86973 13.5916 9.26854 13.5916 8.89773 13.9624C8.52693 14.3332 8.52693 14.9344 8.89773 15.3052L11.4297 17.8372C11.8005 18.208 12.4017 18.208 12.7725 17.8372L19.1026 11.5072Z" fill="#2C7743"/>
</svg>
