<svg width="52" height="46" viewBox="0 0 52 46" fill="none" xmlns="http://www.w3.org/2000/svg">
<path d="M14.0692 43.0825L9.57275 35.2944L16.1716 23.8963L20.3648 31.1598L45.1186 31.1465L38.0946 43.1901L14.0692 43.0825Z" fill="#FFD35C"/>
<path d="M49.5393 23.4132L45.0429 31.2012L31.8725 31.1857L36.0661 23.9224L23.6777 2.49158L37.6198 2.55275L49.5393 23.4132Z" fill="white"/>
<path d="M14.7631 2.45007H23.7561L30.3278 13.864L21.9406 13.8636L9.57533 35.3077L2.65723 23.203L14.7631 2.45007Z" fill="#2C7743"/>
<path fill-rule="evenodd" clip-rule="evenodd" d="M24.8516 0.646985L24.8248 0.600464H13.6999L0.520508 23.1938L9.56746 39.0233L9.57856 39.0041L12.9987 44.9279L39.1546 45.0449L48.34 29.2951H48.2789L51.6721 23.418L38.6955 0.707718L24.8516 0.646985ZM33.4574 15.7139H33.5268L26.9872 4.35609L36.5431 4.39799L47.4056 23.4085L44.0057 29.2976L35.0955 29.3023L38.2021 23.9218L33.4574 15.7139ZM22.5861 4.3001L27.0452 12.0141L20.8713 12.014L10.3014 30.3443L9.58038 31.5898L4.79263 23.2126L15.8249 4.3001H22.5861ZM18.2989 23.8811L23.0085 15.7137L29.1841 15.7139L33.9294 23.9229L30.8221 29.3047L21.4329 29.3098L18.2989 23.8811ZM11.7132 35.3021L13.505 32.1949L16.1694 27.5925L19.2973 33.0106L28.6851 33.0055L28.6699 33.0317L41.8689 33.0474L37.035 41.3358L15.1402 41.2378L11.7132 35.3021Z" fill="#0E2515"/>
</svg>
