<svg width="48" height="48" viewBox="0 0 48 48" fill="none" xmlns="http://www.w3.org/2000/svg">
<path d="M29.25 9C29.251 9.33245 29.2183 9.66414 29.1525 9.99C29.1312 10.0983 29.0866 10.2006 29.0219 10.29C28.9571 10.3794 28.8737 10.4536 28.7775 10.5075C28.6668 10.567 28.5431 10.598 28.4175 10.5975C28.3224 10.599 28.2279 10.5811 28.14 10.545C25.4817 9.485 22.5182 9.485 19.86 10.545C19.7575 10.5863 19.6471 10.6044 19.5369 10.5979C19.4266 10.5914 19.3191 10.5605 19.2222 10.5074C19.1254 10.4542 19.0415 10.3803 18.9767 10.2908C18.9119 10.2014 18.8677 10.0986 18.8475 9.99C18.7816 9.66414 18.7489 9.33245 18.75 9C18.75 7.60761 19.3031 6.27226 20.2876 5.28769C21.2722 4.30312 22.6076 3.75 24 3.75C25.3923 3.75 26.7277 4.30312 27.7123 5.28769C28.6968 6.27226 29.25 7.60761 29.25 9ZM31.4175 39.3375L31.185 39.81C30.5177 41.1442 29.4921 42.2662 28.223 43.0504C26.954 43.8346 25.4917 44.25 24 44.25C22.5082 44.25 21.0459 43.8346 19.7769 43.0504C18.5079 42.2662 17.4823 41.1442 16.815 39.81L16.5825 39.3375C16.5239 39.2234 16.4957 39.0962 16.5005 38.9681C16.5054 38.84 16.5432 38.7153 16.6103 38.606C16.6774 38.4967 16.7714 38.4065 16.8835 38.3442C16.9955 38.2818 17.1217 38.2494 17.25 38.25H30.75C30.8782 38.2494 31.0044 38.2818 31.1164 38.3442C31.2285 38.4065 31.3226 38.4967 31.3896 38.606C31.4567 38.7153 31.4945 38.84 31.4994 38.9681C31.5042 39.0962 31.476 39.2234 31.4175 39.3375Z" fill="#2C7743"/>
<path d="M28.14 10.545C26.8226 10.0209 25.4178 9.75112 24 9.75V3.75C25.3919 3.75153 26.7264 4.30514 27.7106 5.28938C28.6949 6.27361 29.2485 7.60808 29.25 9C29.251 9.33245 29.2183 9.66414 29.1525 9.99C29.1312 10.0983 29.0867 10.2006 29.0219 10.29C28.9572 10.3794 28.8738 10.4536 28.7775 10.5075C28.6669 10.567 28.5431 10.598 28.4175 10.5975C28.3224 10.599 28.228 10.5811 28.14 10.545ZM31.4175 39.3375L31.185 39.81C30.521 41.1469 29.4962 42.2712 28.2264 43.0559C26.9567 43.8405 25.4926 44.2542 24 44.25V38.25H30.75C30.8782 38.2494 31.0044 38.2818 31.1165 38.3442C31.2285 38.4065 31.3226 38.4967 31.3897 38.606C31.4567 38.7153 31.4945 38.84 31.4994 38.9681C31.5043 39.0962 31.4761 39.2234 31.4175 39.3375Z" fill="#1C4A2A"/>
<path d="M42 34.5V39C41.9994 39.1987 41.9202 39.3892 41.7797 39.5297C41.6392 39.6702 41.4487 39.7494 41.25 39.75H6.75C6.55126 39.7494 6.36083 39.6702 6.2203 39.5297C6.07978 39.3892 6.00057 39.1987 6 39V34.5C6.00052 34.3177 6.06714 34.1419 6.1875 34.005L11.25 28.215V21C11.25 17.6185 12.5933 14.3755 14.9844 11.9844C17.3755 9.5933 20.6185 8.25 24 8.25C27.3815 8.25 30.6245 9.5933 33.0156 11.9844C35.4067 14.3755 36.75 17.6185 36.75 21V28.215L41.8125 34.005C41.9329 34.1419 41.9995 34.3177 42 34.5Z" fill="#B5E3C3"/>
<path d="M15 21.75C14.8011 21.75 14.6104 21.671 14.4697 21.5303C14.3291 21.3897 14.25 21.1989 14.25 21C14.2429 18.6939 15.0565 16.4605 16.5454 14.6993C18.0342 12.9382 20.1011 11.7643 22.3763 11.3877C22.5725 11.3549 22.7737 11.4013 22.9356 11.5169C23.0976 11.6324 23.207 11.8075 23.2398 12.0037C23.2726 12.1999 23.2262 12.4011 23.1106 12.563C22.9951 12.725 22.82 12.8344 22.6238 12.8672C20.6991 13.1861 18.9506 14.1794 17.6912 15.6694C16.4318 17.1595 15.7437 19.049 15.75 21C15.75 21.1989 15.671 21.3897 15.5304 21.5303C15.3897 21.671 15.199 21.75 15 21.75ZM42 34.5V39C41.9995 39.1987 41.9203 39.3892 41.7797 39.5297C41.6392 39.6702 41.4488 39.7494 41.25 39.75H24V8.25C27.3801 8.2548 30.6203 9.59964 33.0104 11.9897C35.4004 14.3797 36.7452 17.62 36.75 21V28.215L41.8125 34.005C41.9329 34.1419 41.9995 34.3177 42 34.5Z" fill="#2C7743"/>
</svg>
