<svg width="28" height="29" viewBox="0 0 28 29" fill="none" xmlns="http://www.w3.org/2000/svg">
<path fill-rule="evenodd" clip-rule="evenodd" d="M8.45252 2.83301H19.5475C20.8995 2.83301 21.5755 2.83301 22.1207 3.02272C23.1546 3.38246 23.9663 4.21806 24.3157 5.28238C24.5 5.84365 24.5 6.53957 24.5 7.93141V24.2696C24.5 25.2708 23.3508 25.8021 22.6239 25.1369C22.1968 24.7461 21.5532 24.7461 21.1261 25.1369L20.5625 25.6526C19.814 26.3376 18.686 26.3376 17.9375 25.6526C17.189 24.9677 16.061 24.9677 15.3125 25.6526C14.564 26.3376 13.436 26.3376 12.6875 25.6526C11.939 24.9677 10.811 24.9677 10.0625 25.6526C9.31398 26.3376 8.18602 26.3376 7.4375 25.6526L6.87389 25.1369C6.4468 24.7461 5.8032 24.7461 5.37611 25.1369C4.64916 25.8021 3.5 25.2708 3.5 24.2696V7.93141C3.5 6.53957 3.5 5.84365 3.68428 5.28238C4.03373 4.21806 4.84542 3.38246 5.87929 3.02272C6.42449 2.83301 7.1005 2.83301 8.45252 2.83301ZM8.16667 8.37467C7.68342 8.37467 7.29167 8.76643 7.29167 9.24967C7.29167 9.73292 7.68342 10.1247 8.16667 10.1247H8.75C9.23325 10.1247 9.625 9.73292 9.625 9.24967C9.625 8.76643 9.23325 8.37467 8.75 8.37467H8.16667ZM12.25 8.37467C11.7668 8.37467 11.375 8.76643 11.375 9.24967C11.375 9.73292 11.7668 10.1247 12.25 10.1247H19.8333C20.3166 10.1247 20.7083 9.73292 20.7083 9.24967C20.7083 8.76643 20.3166 8.37467 19.8333 8.37467H12.25ZM8.16667 12.458C7.68342 12.458 7.29167 12.8498 7.29167 13.333C7.29167 13.8163 7.68342 14.208 8.16667 14.208H8.75C9.23325 14.208 9.625 13.8163 9.625 13.333C9.625 12.8498 9.23325 12.458 8.75 12.458H8.16667ZM12.25 12.458C11.7668 12.458 11.375 12.8498 11.375 13.333C11.375 13.8163 11.7668 14.208 12.25 14.208H19.8333C20.3166 14.208 20.7083 13.8163 20.7083 13.333C20.7083 12.8498 20.3166 12.458 19.8333 12.458H12.25ZM8.16667 16.5413C7.68342 16.5413 7.29167 16.9331 7.29167 17.4163C7.29167 17.8996 7.68342 18.2913 8.16667 18.2913H8.75C9.23325 18.2913 9.625 17.8996 9.625 17.4163C9.625 16.9331 9.23325 16.5413 8.75 16.5413H8.16667ZM12.25 16.5413C11.7668 16.5413 11.375 16.9331 11.375 17.4163C11.375 17.8996 11.7668 18.2913 12.25 18.2913H19.8333C20.3166 18.2913 20.7083 17.8996 20.7083 17.4163C20.7083 16.9331 20.3166 16.5413 19.8333 16.5413H12.25Z" fill="#64748B"/>
</svg>
