<svg width="48" height="48" viewBox="0 0 48 48" fill="none" xmlns="http://www.w3.org/2000/svg">
<g clip-path="url(#clip0_6579_12439)">
<path d="M24 6C19.6254 6.00492 15.4315 7.74489 12.3382 10.8382C9.24489 13.9315 7.50492 18.1254 7.5 22.5V36.75C7.5 36.9489 7.57902 37.1397 7.71967 37.2803C7.86032 37.421 8.05109 37.5 8.25 37.5H39.75C39.9489 37.5 40.1397 37.421 40.2803 37.2803C40.421 37.1397 40.5 36.9489 40.5 36.75V22.5C40.4951 18.1254 38.7551 13.9315 35.6618 10.8382C32.5685 7.74489 28.3746 6.00492 24 6Z" fill="#DAF1E1"/>
<path d="M26.25 37.5C26.0511 37.5 25.8603 37.421 25.7197 37.2803C25.579 37.1397 25.5 36.9489 25.5 36.75V25.5H22.5V36.75C22.5 36.9489 22.421 37.1397 22.2803 37.2803C22.1397 37.421 21.9489 37.5 21.75 37.5C21.5511 37.5 21.3603 37.421 21.2197 37.2803C21.079 37.1397 21 36.9489 21 36.75V25.5H18.75C18.0083 25.5 17.2833 25.2801 16.6666 24.868C16.0499 24.456 15.5693 23.8703 15.2855 23.1851C15.0016 22.4998 14.9274 21.7458 15.0721 21.0184C15.2167 20.291 15.5739 19.6228 16.0983 19.0984C16.6228 18.5739 17.291 18.2167 18.0184 18.0721C18.7458 17.9274 19.4998 18.0016 20.1851 18.2855C20.8703 18.5693 21.456 19.0499 21.868 19.6666C22.2801 20.2833 22.5 21.0083 22.5 21.75V24H25.5V21.75C25.5 21.0083 25.7199 20.2833 26.132 19.6666C26.544 19.0499 27.1297 18.5693 27.8149 18.2855C28.5002 18.0016 29.2542 17.9274 29.9816 18.0721C30.709 18.2167 31.3772 18.5739 31.9016 19.0984C32.4261 19.6228 32.7833 20.291 32.9279 21.0184C33.0726 21.7458 32.9984 22.4998 32.7145 23.1851C32.4307 23.8703 31.9501 24.456 31.3334 24.868C30.7167 25.2801 29.9917 25.5 29.25 25.5H27V36.75C27 36.9489 26.921 37.1397 26.7803 37.2803C26.6397 37.421 26.4489 37.5 26.25 37.5ZM27 24H29.25C29.695 24 30.13 23.868 30.5 23.6208C30.87 23.3736 31.1584 23.0222 31.3287 22.611C31.499 22.1999 31.5436 21.7475 31.4568 21.311C31.37 20.8746 31.1557 20.4737 30.841 20.159C30.5263 19.8443 30.1254 19.63 29.689 19.5432C29.2525 19.4564 28.8001 19.501 28.389 19.6713C27.9778 19.8416 27.6264 20.13 27.3792 20.5C27.132 20.87 27 21.305 27 21.75V24ZM18.75 19.5C18.1533 19.5 17.581 19.7371 17.159 20.159C16.7371 20.581 16.5 21.1533 16.5 21.75C16.5 22.3467 16.7371 22.919 17.159 23.341C17.581 23.7629 18.1533 24 18.75 24H21V21.75C20.9993 21.1535 20.7621 20.5815 20.3403 20.1597C19.9185 19.7379 19.3465 19.5007 18.75 19.5ZM24 4.5C23.8011 4.5 23.6103 4.42098 23.4697 4.28033C23.329 4.13968 23.25 3.94891 23.25 3.75V0.75C23.25 0.551088 23.329 0.360322 23.4697 0.21967C23.6103 0.0790176 23.8011 0 24 0C24.1989 0 24.3897 0.0790176 24.5303 0.21967C24.671 0.360322 24.75 0.551088 24.75 0.75V3.75C24.75 3.94891 24.671 4.13968 24.5303 4.28033C24.3897 4.42098 24.1989 4.5 24 4.5ZM10.7417 9.99172C10.6432 9.99184 10.5456 9.97249 10.4546 9.93477C10.3636 9.89706 10.281 9.84174 10.2114 9.77197L8.09032 7.6509C7.95262 7.50965 7.8761 7.31984 7.87735 7.12258C7.8786 6.92532 7.95752 6.73649 8.097 6.597C8.23649 6.45752 8.42532 6.3786 8.62258 6.37735C8.81984 6.3761 9.00965 6.45262 9.1509 6.59032L11.272 8.7114C11.3769 8.81629 11.4483 8.94991 11.4772 9.09539C11.5062 9.24087 11.4913 9.39166 11.4346 9.5287C11.3778 9.66574 11.2817 9.78288 11.1584 9.86529C11.035 9.94771 10.8901 9.99171 10.7417 9.99172ZM5.25 23.25H2.25C2.05109 23.25 1.86032 23.171 1.71967 23.0303C1.57902 22.8897 1.5 22.6989 1.5 22.5C1.5 22.3011 1.57902 22.1103 1.71967 21.9697C1.86032 21.829 2.05109 21.75 2.25 21.75H5.25C5.44891 21.75 5.63968 21.829 5.78033 21.9697C5.92098 22.1103 6 22.3011 6 22.5C6 22.6989 5.92098 22.8897 5.78033 23.0303C5.63968 23.171 5.44891 23.25 5.25 23.25ZM37.2583 9.99172C37.1099 9.99171 36.965 9.94771 36.8416 9.86529C36.7183 9.78288 36.6222 9.66574 36.5654 9.5287C36.5087 9.39166 36.4938 9.24087 36.5228 9.09539C36.5517 8.94991 36.6231 8.81629 36.728 8.7114L38.8491 6.59032C38.9903 6.45262 39.1802 6.3761 39.3774 6.37735C39.5747 6.3786 39.7635 6.45752 39.903 6.597C40.0425 6.73649 40.1214 6.92532 40.1227 7.12258C40.1239 7.31984 40.0474 7.50965 39.9097 7.6509L37.7886 9.77197C37.719 9.84174 37.6364 9.89706 37.5454 9.93477C37.4544 9.97249 37.3568 9.99184 37.2583 9.99172ZM45.75 23.25H42.75C42.5511 23.25 42.3603 23.171 42.2197 23.0303C42.079 22.8897 42 22.6989 42 22.5C42 22.3011 42.079 22.1103 42.2197 21.9697C42.3603 21.829 42.5511 21.75 42.75 21.75H45.75C45.9489 21.75 46.1397 21.829 46.2803 21.9697C46.421 22.1103 46.5 22.3011 46.5 22.5C46.5 22.6989 46.421 22.8897 46.2803 23.0303C46.1397 23.171 45.9489 23.25 45.75 23.25Z" fill="#379553"/>
<path d="M43.5 36H4.5C4.08579 36 3.75 36.3358 3.75 36.75V42.75C3.75 43.1642 4.08579 43.5 4.5 43.5H43.5C43.9142 43.5 44.25 43.1642 44.25 42.75V36.75C44.25 36.3358 43.9142 36 43.5 36Z" fill="#2C7743"/>
<path d="M46.5 42H1.5C1.08579 42 0.75 42.3358 0.75 42.75V47.25C0.75 47.6642 1.08579 48 1.5 48H46.5C46.9142 48 47.25 47.6642 47.25 47.25V42.75C47.25 42.3358 46.9142 42 46.5 42Z" fill="#379553"/>
</g>
<defs>
<clipPath id="clip0_6579_12439">
<rect width="48" height="48" fill="white"/>
</clipPath>
</defs>
</svg>
