<svg width="28" height="29" viewBox="0 0 28 29" fill="none" xmlns="http://www.w3.org/2000/svg">
<path fill-rule="evenodd" clip-rule="evenodd" d="M14.0608 1.95801H13.9395C12.8913 1.95798 12.0172 1.95795 11.3233 2.05124C10.5908 2.14971 9.92958 2.36633 9.3982 2.89771C8.86682 3.42909 8.6502 4.09036 8.55173 4.82279C8.48485 5.32021 8.46593 6.50973 8.46059 7.52961C6.10129 7.60667 4.68475 7.88209 3.70033 8.86651C2.3335 10.2333 2.3335 12.4332 2.3335 16.833C2.3335 21.2328 2.3335 23.4327 3.70033 24.7995C5.06716 26.1663 7.26705 26.1663 11.6668 26.1663H16.3335C20.7333 26.1663 22.9332 26.1663 24.3 24.7995C25.6668 23.4327 25.6668 21.2328 25.6668 16.833C25.6668 12.4332 25.6668 10.2333 24.3 8.86651C23.3156 7.88209 21.899 7.60667 19.5397 7.52961C19.5344 6.50973 19.5155 5.32021 19.4486 4.82279C19.3501 4.09036 19.1335 3.42909 18.6021 2.89771C18.0708 2.36633 17.4095 2.14971 16.6771 2.05124C15.9832 1.95795 15.109 1.95798 14.0608 1.95801ZM17.7894 7.50186C17.7841 6.51411 17.7673 5.45109 17.7142 5.05597C17.6418 4.5176 17.5167 4.28718 17.3647 4.13515C17.2127 3.98311 16.9822 3.85802 16.4439 3.78564C15.8803 3.70987 15.1248 3.70801 14.0002 3.70801C12.8755 3.70801 12.12 3.70987 11.5565 3.78564C11.0181 3.85802 10.7877 3.98311 10.6356 4.13515C10.4836 4.28718 10.3585 4.5176 10.2861 5.05597C10.233 5.45109 10.2162 6.51411 10.2109 7.50186C10.6676 7.49968 11.1522 7.49968 11.6668 7.49968H16.3335C16.8482 7.49968 17.3327 7.49968 17.7894 7.50186ZM14.0002 11.2913C14.4834 11.2913 14.8752 11.6831 14.8752 12.1663V12.1783C16.1454 12.4983 17.2085 13.4998 17.2085 14.8886C17.2085 15.3718 16.8167 15.7636 16.3335 15.7636C15.8502 15.7636 15.4585 15.3718 15.4585 14.8886C15.4585 14.4405 14.9617 13.8191 14.0002 13.8191C13.0386 13.8191 12.5418 14.4405 12.5418 14.8886C12.5418 15.3366 13.0386 15.958 14.0002 15.958C15.6159 15.958 17.2085 17.0777 17.2085 18.7775C17.2085 20.1662 16.1454 21.1677 14.8752 21.4877V21.4997C14.8752 21.9829 14.4834 22.3747 14.0002 22.3747C13.5169 22.3747 13.1252 21.9829 13.1252 21.4997V21.4877C11.8549 21.1677 10.7918 20.1662 10.7918 18.7775C10.7918 18.2942 11.1836 17.9025 11.6668 17.9025C12.1501 17.9025 12.5418 18.2942 12.5418 18.7775C12.5418 19.2255 13.0386 19.8469 14.0002 19.8469C14.9617 19.8469 15.4585 19.2255 15.4585 18.7775C15.4585 18.3294 14.9617 17.708 14.0002 17.708C12.3844 17.708 10.7918 16.5883 10.7918 14.8886C10.7918 13.4998 11.8549 12.4983 13.1252 12.1783V12.1663C13.1252 11.6831 13.5169 11.2913 14.0002 11.2913Z" fill="#64748B"/>
</svg>
