<svg width="48" height="48" viewBox="0 0 48 48" fill="none" xmlns="http://www.w3.org/2000/svg">
<g clip-path="url(#clip0_6642_8550)">
<path d="M47.874 10.084L43.374 3.33398C43.3055 3.23127 43.2127 3.14704 43.1039 3.08878C42.995 3.03052 42.8735 3.00003 42.75 3H5.25001C5.12655 3.00003 5.005 3.03052 4.89615 3.08878C4.7873 3.14704 4.69451 3.23127 4.62601 3.33398L0.126009 10.084C0.0506915 10.1969 0.00744331 10.3282 0.000877752 10.4638C-0.0056878 10.5994 0.0246755 10.7342 0.0887292 10.8539C0.152783 10.9736 0.248124 11.0737 0.364585 11.1434C0.481045 11.2132 0.614256 11.25 0.750009 11.25H47.25C47.3858 11.25 47.519 11.2132 47.6354 11.1434C47.7519 11.0737 47.8472 10.9736 47.9113 10.8539C47.9753 10.7342 48.0057 10.5994 47.9991 10.4638C47.9926 10.3282 47.9493 10.1969 47.874 10.084Z" fill="#0E2515"/>
<path d="M47.25 9.75H0.75C0.335786 9.75 0 10.0858 0 10.5V27C0 27.4142 0.335786 27.75 0.75 27.75H47.25C47.6642 27.75 48 27.4142 48 27V10.5C48 10.0858 47.6642 9.75 47.25 9.75Z" fill="#2A6F3F"/>
<path d="M42 15H36C35.5858 15 35.25 15.3358 35.25 15.75V21.75C35.25 22.1642 35.5858 22.5 36 22.5H42C42.4142 22.5 42.75 22.1642 42.75 21.75V15.75C42.75 15.3358 42.4142 15 42 15Z" fill="#0E2515"/>
<path d="M12 15H6C5.58579 15 5.25 15.3358 5.25 15.75V21.75C5.25 22.1642 5.58579 22.5 6 22.5H12C12.4142 22.5 12.75 22.1642 12.75 21.75V15.75C12.75 15.3358 12.4142 15 12 15Z" fill="#0E2515"/>
<path d="M36.75 15H11.25V44.25C11.25 44.4489 11.329 44.6397 11.4697 44.7803C11.6103 44.921 11.8011 45 12 45H36C36.1989 45 36.3897 44.921 36.5303 44.7803C36.671 44.6397 36.75 44.4489 36.75 44.25V15Z" fill="#FFD35C"/>
<path d="M33.7501 15H14.2501V38.25C14.2473 38.4461 14.3226 38.6352 14.4592 38.7759C14.5958 38.9165 14.7827 38.9972 14.9788 39.0001C15.2777 38.9976 15.5742 39.0546 15.8509 39.1679C16.1276 39.2811 16.3789 39.4483 16.5903 39.6597C16.8017 39.8711 16.9689 40.1225 17.0822 40.3992C17.1954 40.6759 17.2525 40.9724 17.25 41.2713C17.2529 41.4674 17.3336 41.6543 17.4742 41.7909C17.6149 41.9275 17.804 42.0027 18.0001 42H30.0001C30.1961 42.0027 30.3853 41.9275 30.5259 41.7909C30.6666 41.6543 30.7472 41.4674 30.7502 41.2713C30.7477 40.9724 30.8047 40.6759 30.9179 40.3992C31.0312 40.1225 31.1984 39.8711 31.4098 39.6597C31.6212 39.4483 31.8726 39.2811 32.1493 39.1679C32.426 39.0546 32.7224 38.9976 33.0214 39.0001C33.2175 38.9972 33.4043 38.9165 33.541 38.7759C33.6776 38.6352 33.7528 38.4461 33.7501 38.25V15Z" fill="#CC9600"/>
<path d="M28.5 22.5H28.0591C28.0217 22.0489 27.8659 21.6157 27.6076 21.2441C27.3492 20.8724 26.9974 20.5755 26.5876 20.3833C26.2019 20.2383 25.781 20.2151 25.3816 20.3168C24.9823 20.4186 24.6238 20.6404 24.3545 20.9524C23.9681 21.4111 23.6669 21.9352 23.4652 22.5H21.4808C21.5249 22.2997 21.632 22.1188 21.7865 21.9839C21.9409 21.8489 22.1345 21.7669 22.3389 21.75C22.5378 21.75 22.7286 21.671 22.8692 21.5303C23.0099 21.3897 23.0889 21.1989 23.0889 21C23.0889 20.8011 23.0099 20.6103 22.8692 20.4697C22.7286 20.329 22.5378 20.25 22.3389 20.25C21.7375 20.2808 21.1664 20.5237 20.7272 20.9356C20.288 21.3475 20.0089 21.9018 19.9397 22.5H19.5C19.3011 22.5 19.1103 22.579 18.9697 22.7197C18.829 22.8603 18.75 23.0511 18.75 23.25C18.75 23.4489 18.829 23.6397 18.9697 23.7803C19.1103 23.921 19.3011 24 19.5 24H19.9409C19.9783 24.4511 20.1341 24.8843 20.3924 25.2559C20.6508 25.6276 21.0026 25.9245 21.4124 26.1167C21.6352 26.205 21.8728 26.2505 22.1126 26.2507C22.4027 26.2455 22.6887 26.1804 22.9525 26.0594C23.2163 25.9384 23.4523 25.7642 23.6455 25.5476C24.0319 25.0889 24.3331 24.5648 24.5348 24H26.5193C26.474 24.2018 26.365 24.3838 26.2084 24.5188C26.0517 24.6539 25.8557 24.735 25.6494 24.75C25.4515 24.7531 25.2628 24.8342 25.1245 24.9758C24.9862 25.1174 24.9095 25.3079 24.911 25.5058C24.9125 25.7037 24.9923 25.893 25.1328 26.0324C25.2733 26.1718 25.4632 26.25 25.6611 26.25C26.2625 26.2193 26.8336 25.9763 27.2728 25.5644C27.7121 25.1525 27.9911 24.5982 28.0604 24H28.5C28.6989 24 28.8897 23.921 29.0303 23.7803C29.171 23.6397 29.25 23.4489 29.25 23.25C29.25 23.0511 29.171 22.8603 29.0303 22.7197C28.8897 22.579 28.6989 22.5 28.5 22.5ZM25.4517 21.9763C25.5196 21.89 25.6111 21.8253 25.7152 21.7902C25.8192 21.7551 25.9313 21.751 26.0376 21.7786C26.1686 21.8544 26.2811 21.9585 26.3668 22.0833C26.4524 22.2081 26.5091 22.3505 26.5327 22.5H25.1132C25.2033 22.3118 25.317 22.1358 25.4517 21.9763ZM22.5483 24.5237C22.4807 24.6103 22.3891 24.6752 22.285 24.7103C22.1809 24.7455 22.0687 24.7493 21.9624 24.7214C21.8314 24.6456 21.7189 24.5415 21.6332 24.4167C21.5476 24.2919 21.4909 24.1495 21.4673 24H22.8868C22.7967 24.1883 22.683 24.3642 22.5483 24.5237Z" fill="#997000"/>
<path d="M24 34.5C25.2426 34.5 26.25 33.4926 26.25 32.25C26.25 31.0074 25.2426 30 24 30C22.7574 30 21.75 31.0074 21.75 32.25C21.75 33.4926 22.7574 34.5 24 34.5Z" fill="#997000"/>
</g>
<defs>
<clipPath id="clip0_6642_8550">
<rect width="48" height="48" fill="white"/>
</clipPath>
</defs>
</svg>
