<svg width="48" height="48" viewBox="0 0 48 48" fill="none" xmlns="http://www.w3.org/2000/svg">
<path d="M42.75 0H39V13.5H45.75V3C45.75 2.20435 45.4339 1.44129 44.8713 0.87868C44.3087 0.316071 43.5456 0 42.75 0Z" fill="#2C7743"/>
<path d="M9.32128 18.072C9.19312 18.0108 9.05015 17.9873 8.90913 18.0045C8.76812 18.0216 8.63491 18.0786 8.52514 18.1687L0.275139 24.9187C0.183601 24.9937 0.111071 25.0892 0.0634634 25.1975C0.0158562 25.3057 -0.00547962 25.4238 0.00119622 25.5419C0.00787205 25.66 0.0423704 25.7748 0.101878 25.8771C0.161385 25.9793 0.244216 26.066 0.343614 26.1301L8.59361 31.4475C8.7149 31.5254 8.85598 31.5668 9.00011 31.5669C9.199 31.5668 9.38973 31.4878 9.53036 31.3472C9.671 31.2065 9.75004 31.0158 9.75011 30.8169V18.7495C9.75017 18.6076 9.7099 18.4685 9.63398 18.3486C9.55805 18.2286 9.44961 18.1327 9.32128 18.072ZM47.7251 24.9187L39.4751 18.1687C39.3651 18.079 39.232 18.0222 39.0911 18.0051C38.9502 17.988 38.8073 18.0112 38.679 18.072C38.5508 18.1328 38.4424 18.2287 38.3665 18.3487C38.2906 18.4686 38.2502 18.6076 38.2501 18.7495V30.8169C38.2502 30.9517 38.2865 31.0839 38.3554 31.1998C38.4242 31.3156 38.523 31.4108 38.6413 31.4753C38.7596 31.5399 38.8931 31.5713 39.0278 31.5664C39.1624 31.5615 39.2933 31.5205 39.4066 31.4475L47.6566 26.1301C47.756 26.066 47.8388 25.9793 47.8984 25.8771C47.9579 25.7748 47.9924 25.66 47.999 25.5419C48.0057 25.4238 47.9844 25.3057 47.9368 25.1975C47.8892 25.0892 47.8166 24.9937 47.7251 24.9187Z" fill="#8896AA"/>
<path d="M11.25 0C10.4544 0 9.69129 0.316071 9.12868 0.87868C8.56607 1.44129 8.25 2.20435 8.25 3V30.8174C8.25 30.9427 8.2814 31.066 8.34133 31.176C8.40127 31.286 8.48783 31.3793 8.5931 31.4472L13.3114 34.4932C13.4571 34.5872 13.6309 34.6278 13.8032 34.6081C13.9755 34.5884 14.1356 34.5095 14.2562 34.385L24 24.3281L33.7438 34.385C33.8646 34.5095 34.0249 34.5883 34.1973 34.608C34.3697 34.6276 34.5436 34.5869 34.6893 34.4927L39.4068 31.4473C39.5121 31.3793 39.5987 31.286 39.6586 31.176C39.7186 31.0659 39.75 30.9426 39.75 30.8173V3C39.75 2.20435 40.066 1.44129 40.6286 0.87868C41.1913 0.316071 41.9543 0 42.75 0L11.25 0Z" fill="#6AC886"/>
<path d="M24 19.5C28.5563 19.5 32.25 15.8063 32.25 11.25C32.25 6.69365 28.5563 3 24 3C19.4437 3 15.75 6.69365 15.75 11.25C15.75 15.8063 19.4437 19.5 24 19.5Z" fill="#FFD35C"/>
<path d="M47.6089 24.8412C47.4906 24.7765 47.3571 24.745 47.2224 24.7499C47.0877 24.7548 46.9568 24.7959 46.8435 24.869L34.3931 32.8985L24.5387 22.7274C24.3944 22.5872 24.2012 22.5088 24 22.5088C23.7988 22.5088 23.6056 22.5872 23.4613 22.7274L13.6069 32.8986L1.1565 24.869C1.04318 24.7961 0.912313 24.755 0.777638 24.7501C0.642962 24.7452 0.509452 24.7767 0.391134 24.8412C0.272816 24.9057 0.174056 25.0009 0.105232 25.1167C0.0364068 25.2326 5.66518e-05 25.3649 2.53655e-08 25.4996V47.2496C-2.55943e-05 47.3481 0.0193562 47.4457 0.0570382 47.5367C0.0947201 47.6277 0.149964 47.7104 0.219613 47.78C0.289262 47.8497 0.371951 47.9049 0.462957 47.9426C0.553963 47.9803 0.651501 47.9997 0.75 47.9996H47.25C47.3485 47.9997 47.446 47.9803 47.537 47.9426C47.628 47.9049 47.7107 47.8497 47.7804 47.78C47.85 47.7104 47.9053 47.6277 47.943 47.5367C47.9806 47.4457 48 47.3481 48 47.2496V25.4996C48 25.3649 47.9637 25.2326 47.8949 25.1167C47.826 25.0008 47.7272 24.9056 47.6089 24.8412Z" fill="#A6B0BF"/>
<path d="M24.75 10.713V8.15268C25.0412 8.18973 25.3111 8.32465 25.5156 8.5353C25.72 8.74595 25.8467 9.01983 25.875 9.312C25.875 9.51091 25.954 9.70168 26.0947 9.84233C26.2353 9.98298 26.4261 10.062 26.625 10.062C26.8239 10.062 27.0147 9.98298 27.1553 9.84233C27.296 9.70168 27.375 9.51091 27.375 9.312C27.3479 8.61799 27.0646 7.95864 26.5798 7.46128C26.095 6.96392 25.4431 6.66384 24.75 6.61899V6C24.75 5.80109 24.671 5.61032 24.5303 5.46967C24.3897 5.32902 24.1989 5.25 24 5.25C23.8011 5.25 23.6103 5.32902 23.4697 5.46967C23.329 5.61032 23.25 5.80109 23.25 6V6.62045C22.7263 6.64876 22.2198 6.81751 21.7838 7.109C21.3478 7.40049 20.9982 7.80397 20.7719 8.2771C20.6122 8.70388 20.5873 9.16936 20.7005 9.61074C20.8137 10.0521 21.0596 10.4481 21.405 10.7453C21.9514 11.2021 22.5767 11.5551 23.25 11.787V14.3472C22.9575 14.3095 22.6866 14.1731 22.4821 13.9606C22.2775 13.7481 22.1516 13.4722 22.125 13.1785C22.1238 12.9796 22.0435 12.7893 21.902 12.6495C21.7604 12.5098 21.5692 12.432 21.3703 12.4332C21.1713 12.4345 20.9811 12.5147 20.8413 12.6563C20.7016 12.7978 20.6238 12.9891 20.625 13.188C20.6521 13.882 20.9354 14.5414 21.4202 15.0387C21.905 15.5361 22.5569 15.8362 23.25 15.881V16.5C23.25 16.6989 23.329 16.8897 23.4697 17.0303C23.6103 17.171 23.8011 17.25 24 17.25C24.1989 17.25 24.3897 17.171 24.5303 17.0303C24.671 16.8897 24.75 16.6989 24.75 16.5V15.8795C25.2737 15.8512 25.7802 15.6825 26.2162 15.391C26.6523 15.0995 27.0018 14.696 27.2282 14.2229C27.3878 13.7961 27.4127 13.3306 27.2995 12.8893C27.1863 12.4479 26.9404 12.0519 26.595 11.7547C26.0486 11.2979 25.4233 10.9449 24.75 10.713ZM22.4282 9.64819C22.3048 9.55541 22.2134 9.42648 22.1667 9.27933C22.12 9.13218 22.1202 8.97413 22.1675 8.82715C22.2778 8.63205 22.434 8.46683 22.6227 8.34586C22.8114 8.22489 23.0267 8.15182 23.25 8.133V10.1595C22.9526 10.0301 22.6758 9.8578 22.4282 9.64819ZM25.8325 13.6729C25.7223 13.868 25.566 14.0332 25.3773 14.1541C25.1887 14.2751 24.9733 14.3482 24.75 14.367V12.3405C25.0474 12.4699 25.3243 12.6422 25.5718 12.8518C25.6952 12.9446 25.7866 13.0735 25.8333 13.2207C25.8801 13.3678 25.8798 13.5259 25.8325 13.6729Z" fill="#CC9600"/>
<path d="M2.53655e-08 47.2497C-2.55943e-05 47.3482 0.0193562 47.4458 0.0570382 47.5368C0.0947201 47.6278 0.149964 47.7105 0.219613 47.7801C0.289262 47.8498 0.371951 47.905 0.462957 47.9427C0.553963 47.9804 0.651501 47.9997 0.75 47.9997H47.25C47.3485 47.9997 47.446 47.9804 47.537 47.9427C47.628 47.905 47.7107 47.8498 47.7804 47.7801C47.85 47.7105 47.9053 47.6278 47.943 47.5368C47.9806 47.4458 48 47.3482 48 47.2497V46.9463L24.5387 22.7282C24.5304 22.7196 24.5184 22.7166 24.5098 22.7084C24.365 22.5785 24.1763 22.5083 23.9818 22.5118C23.7873 22.5154 23.6013 22.5924 23.4613 22.7275L2.53655e-08 46.946V47.2497Z" fill="#E1E5EA"/>
</svg>
