<svg width="48" height="48" viewBox="0 0 48 48" fill="none" xmlns="http://www.w3.org/2000/svg">
<g clip-path="url(#clip0_6643_11227)">
<path d="M24 0C21.4151 0.00297748 18.9368 1.03116 17.109 2.859C15.2812 4.68683 14.253 7.16505 14.25 9.75V16.5C14.25 16.6989 14.329 16.8897 14.4697 17.0303C14.6103 17.171 14.8011 17.25 15 17.25H19.5C19.6989 17.25 19.8897 17.171 20.0303 17.0303C20.171 16.8897 20.25 16.6989 20.25 16.5V9.75C20.25 8.75544 20.6451 7.80161 21.3483 7.09835C22.0516 6.39509 23.0054 6 24 6C24.9946 6 25.9484 6.39509 26.6517 7.09835C27.3549 7.80161 27.75 8.75544 27.75 9.75V16.5C27.75 16.6989 27.829 16.8897 27.9697 17.0303C28.1103 17.171 28.3011 17.25 28.5 17.25H33C33.1989 17.25 33.3897 17.171 33.5303 17.0303C33.671 16.8897 33.75 16.6989 33.75 16.5V9.75C33.747 7.16505 32.7188 4.68683 30.891 2.859C29.0632 1.03116 26.5849 0.00297748 24 0Z" fill="#B5E3C3"/>
<path d="M21 15.75H13.5C13.0858 15.75 12.75 16.0858 12.75 16.5V20.25C12.75 20.6642 13.0858 21 13.5 21H21C21.4142 21 21.75 20.6642 21.75 20.25V16.5C21.75 16.0858 21.4142 15.75 21 15.75Z" fill="#DAF1E1"/>
<path d="M34.5 15.75H27C26.5858 15.75 26.25 16.0858 26.25 16.5V20.25C26.25 20.6642 26.5858 21 27 21H34.5C34.9142 21 35.25 20.6642 35.25 20.25V16.5C35.25 16.0858 34.9142 15.75 34.5 15.75Z" fill="#DAF1E1"/>
<path d="M34.5 19.5H13.5C11.4289 19.5 9.75 21.1789 9.75 23.25V44.25C9.75 46.3211 11.4289 48 13.5 48H34.5C36.5711 48 38.25 46.3211 38.25 44.25V23.25C38.25 21.1789 36.5711 19.5 34.5 19.5Z" fill="#ECF8F0"/>
<path d="M42 27.75H6C4.34315 27.75 3 29.0931 3 30.75V36.75C3 38.4069 4.34315 39.75 6 39.75H42C43.6569 39.75 45 38.4069 45 36.75V30.75C45 29.0931 43.6569 27.75 42 27.75Z" fill="#2C7743"/>
<path d="M26.8741 31.8337C26.8194 31.7518 26.7492 31.6814 26.6673 31.6266C26.5855 31.5718 26.4936 31.5337 26.397 31.5144C26.3004 31.4951 26.201 31.495 26.1043 31.5142C26.0077 31.5333 25.9158 31.5713 25.8338 31.626L24.7501 32.349V31.5C24.7501 31.3011 24.6711 31.1103 24.5304 30.9697C24.3898 30.829 24.199 30.75 24.0001 30.75C23.8012 30.75 23.6104 30.829 23.4698 30.9697C23.3291 31.1103 23.2501 31.3011 23.2501 31.5V32.349L22.1663 31.626C22.0009 31.5156 21.7983 31.4755 21.6032 31.5144C21.4081 31.5534 21.2365 31.6683 21.1261 31.8337C21.0157 31.9992 20.9756 32.2018 21.0145 32.3969C21.0535 32.592 21.1684 32.7636 21.3338 32.874L22.6501 33.75L21.3361 34.626C21.1706 34.7364 21.0557 34.908 21.0168 35.1031C20.9778 35.2982 21.018 35.5008 21.1283 35.6663C21.2387 35.8317 21.4104 35.9466 21.6054 35.9856C21.8005 36.0245 22.0031 35.9844 22.1686 35.874L23.2501 35.151V36C23.2501 36.1989 23.3291 36.3897 23.4698 36.5303C23.6104 36.671 23.8012 36.75 24.0001 36.75C24.199 36.75 24.3898 36.671 24.5304 36.5303C24.6711 36.3897 24.7501 36.1989 24.7501 36V35.151L25.8338 35.874C25.9158 35.9287 26.0077 35.9666 26.1043 35.9858C26.201 36.0049 26.3004 36.0049 26.397 35.9856C26.4936 35.9663 26.5854 35.9281 26.6673 35.8734C26.7492 35.8186 26.8194 35.7482 26.8741 35.6663C26.9288 35.5843 26.9667 35.4924 26.9859 35.3958C27.005 35.2991 27.005 35.1997 26.9857 35.1031C26.9664 35.0065 26.9282 34.9147 26.8735 34.8328C26.8187 34.7509 26.7483 34.6807 26.6663 34.626L25.3501 33.75L26.6641 32.874C26.7462 32.8195 26.8168 32.7494 26.8718 32.6676C26.9268 32.5858 26.9652 32.494 26.9847 32.3974C27.0042 32.3008 27.0045 32.2013 26.9855 32.1046C26.9665 32.0079 26.9287 31.9158 26.8741 31.8337ZM34.3741 31.8337C34.3194 31.7518 34.2492 31.6814 34.1673 31.6266C34.0855 31.5718 33.9936 31.5337 33.897 31.5144C33.8004 31.4951 33.701 31.495 33.6043 31.5142C33.5077 31.5333 33.4158 31.5713 33.3338 31.626L32.2501 32.349V31.5C32.2501 31.3011 32.1711 31.1103 32.0304 30.9697C31.8898 30.829 31.699 30.75 31.5001 30.75C31.3012 30.75 31.1104 30.829 30.9698 30.9697C30.8291 31.1103 30.7501 31.3011 30.7501 31.5V32.349L29.6663 31.626C29.5009 31.5156 29.2983 31.4755 29.1032 31.5144C28.9081 31.5534 28.7365 31.6683 28.6261 31.8337C28.5157 31.9992 28.4756 32.2018 28.5145 32.3969C28.5535 32.592 28.6684 32.7636 28.8338 32.874L30.1501 33.75L28.8361 34.626C28.6706 34.7364 28.5557 34.908 28.5168 35.1031C28.4778 35.2982 28.518 35.5008 28.6283 35.6663C28.7387 35.8317 28.9104 35.9466 29.1054 35.9856C29.3005 36.0245 29.5031 35.9844 29.6686 35.874L30.7501 35.151V36C30.7501 36.1989 30.8291 36.3897 30.9698 36.5303C31.1104 36.671 31.3012 36.75 31.5001 36.75C31.699 36.75 31.8898 36.671 32.0304 36.5303C32.1711 36.3897 32.2501 36.1989 32.2501 36V35.151L33.3338 35.874C33.4158 35.9287 33.5077 35.9666 33.6043 35.9858C33.701 36.0049 33.8004 36.0049 33.897 35.9856C33.9936 35.9663 34.0854 35.9281 34.1673 35.8734C34.2492 35.8186 34.3194 35.7482 34.3741 35.6663C34.4288 35.5843 34.4667 35.4924 34.4859 35.3958C34.505 35.2991 34.505 35.1997 34.4857 35.1031C34.4664 35.0065 34.4282 34.9147 34.3735 34.8328C34.3187 34.7509 34.2483 34.6807 34.1663 34.626L32.8501 33.75L34.1641 32.874C34.2462 32.8195 34.3168 32.7494 34.3718 32.6676C34.4268 32.5858 34.4652 32.494 34.4847 32.3974C34.5042 32.3008 34.5045 32.2013 34.4855 32.1046C34.4665 32.0079 34.4287 31.9158 34.3741 31.8337ZM40.3501 33.75L41.6641 32.874C41.746 32.8193 41.8164 32.7491 41.8712 32.6672C41.926 32.5853 41.9641 32.4935 41.9834 32.3969C42.0027 32.3003 42.0028 32.2009 41.9836 32.1042C41.9645 32.0076 41.9265 31.9157 41.8718 31.8337C41.8172 31.7518 41.7469 31.6814 41.6651 31.6266C41.5832 31.5719 41.4913 31.5337 41.3947 31.5144C41.2982 31.4951 41.1987 31.4951 41.1021 31.5142C41.0055 31.5334 40.9135 31.5713 40.8316 31.626L39.7501 32.349V31.5C39.7501 31.3011 39.6711 31.1103 39.5304 30.9697C39.3898 30.829 39.199 30.75 39.0001 30.75C38.8012 30.75 38.6104 30.829 38.4698 30.9697C38.3291 31.1103 38.2501 31.3011 38.2501 31.5V32.349L37.1663 31.626C37.0009 31.5156 36.7983 31.4755 36.6032 31.5144C36.4081 31.5534 36.2365 31.6683 36.1261 31.8337C36.0157 31.9992 35.9756 32.2018 36.0145 32.3969C36.0535 32.592 36.1684 32.7636 36.3338 32.874L37.6501 33.75L36.3361 34.626C36.1706 34.7364 36.0557 34.908 36.0168 35.1031C35.9778 35.2982 36.018 35.5008 36.1284 35.6663C36.2387 35.8317 36.4104 35.9466 36.6054 35.9856C36.8005 36.0245 37.0031 35.9844 37.1686 35.874L38.2501 35.151V36C38.2501 36.1989 38.3291 36.3897 38.4698 36.5303C38.6104 36.671 38.8012 36.75 39.0001 36.75C39.199 36.75 39.3898 36.671 39.5304 36.5303C39.6711 36.3897 39.7501 36.1989 39.7501 36V35.151L40.8339 35.874C40.9158 35.9287 41.0077 35.9666 41.1043 35.9858C41.201 36.0049 41.3004 36.0049 41.397 35.9856C41.4936 35.9663 41.5854 35.9281 41.6673 35.8734C41.7492 35.8186 41.8194 35.7482 41.8741 35.6663C41.9288 35.5843 41.9668 35.4924 41.9859 35.3958C42.005 35.2991 42.005 35.1997 41.9857 35.1031C41.9664 35.0065 41.9282 34.9147 41.8735 34.8328C41.8187 34.7509 41.7483 34.6807 41.6664 34.626L40.3501 33.75ZM11.8741 31.8337C11.8194 31.7518 11.7492 31.6814 11.6673 31.6266C11.5855 31.5718 11.4936 31.5337 11.397 31.5144C11.3004 31.4951 11.201 31.495 11.1043 31.5142C11.0077 31.5333 10.9158 31.5713 10.8338 31.626L9.7501 32.349V31.5C9.7501 31.3011 9.67108 31.1103 9.53043 30.9697C9.38977 30.829 9.19901 30.75 9.0001 30.75C8.80118 30.75 8.61042 30.829 8.46977 30.9697C8.32911 31.1103 8.2501 31.3011 8.2501 31.5V32.349L7.16635 31.626C7.00085 31.5156 6.79828 31.4755 6.60319 31.5144C6.40811 31.5534 6.23649 31.6683 6.1261 31.8337C6.0157 31.9992 5.97557 32.2018 6.01453 32.3969C6.05349 32.592 6.16835 32.7636 6.33385 32.874L7.6501 33.75L6.33385 34.626C6.16835 34.7364 6.05349 34.908 6.01453 35.1031C5.97557 35.2982 6.0157 35.5008 6.1261 35.6663C6.23649 35.8317 6.40811 35.9466 6.60319 35.9856C6.79828 36.0245 7.00085 35.9844 7.16635 35.874L8.2501 35.151V36C8.2501 36.1989 8.32911 36.3897 8.46977 36.5303C8.61042 36.671 8.80118 36.75 9.0001 36.75C9.19901 36.75 9.38977 36.671 9.53043 36.5303C9.67108 36.3897 9.7501 36.1989 9.7501 36V35.151L10.8338 35.874C10.9158 35.9287 11.0077 35.9666 11.1043 35.9858C11.201 36.0049 11.3004 36.0049 11.397 35.9856C11.4936 35.9663 11.5854 35.9281 11.6673 35.8734C11.7492 35.8186 11.8194 35.7482 11.8741 35.6663C11.9288 35.5843 11.9667 35.4924 11.9859 35.3958C12.005 35.2991 12.005 35.1997 11.9857 35.1031C11.9664 35.0065 11.9282 34.9147 11.8735 34.8328C11.8187 34.7509 11.7483 34.6807 11.6663 34.626L10.3501 33.75L11.6641 32.874C11.7462 32.8195 11.8168 32.7494 11.8718 32.6676C11.9268 32.5858 11.9652 32.494 11.9847 32.3974C12.0042 32.3008 12.0045 32.2013 11.9855 32.1046C11.9665 32.0079 11.9287 31.9158 11.8741 31.8337ZM19.3741 31.8337C19.3194 31.7518 19.2492 31.6814 19.1673 31.6266C19.0855 31.5718 18.9936 31.5337 18.897 31.5144C18.8004 31.4951 18.701 31.495 18.6043 31.5142C18.5077 31.5333 18.4158 31.5713 18.3338 31.626L17.2501 32.349V31.5C17.2501 31.3011 17.1711 31.1103 17.0304 30.9697C16.8898 30.829 16.699 30.75 16.5001 30.75C16.3012 30.75 16.1104 30.829 15.9698 30.9697C15.8291 31.1103 15.7501 31.3011 15.7501 31.5V32.349L14.6663 31.626C14.5009 31.5156 14.2983 31.4755 14.1032 31.5144C13.9081 31.5534 13.7365 31.6683 13.6261 31.8337C13.5157 31.9992 13.4756 32.2018 13.5145 32.3969C13.5535 32.592 13.6684 32.7636 13.8338 32.874L15.1501 33.75L13.8361 34.626C13.6706 34.7364 13.5557 34.908 13.5168 35.1031C13.4778 35.2982 13.5179 35.5008 13.6283 35.6663C13.7387 35.8317 13.9104 35.9466 14.1054 35.9856C14.3005 36.0245 14.5031 35.9844 14.6686 35.874L15.7501 35.151V36C15.7501 36.1989 15.8291 36.3897 15.9698 36.5303C16.1104 36.671 16.3012 36.75 16.5001 36.75C16.699 36.75 16.8898 36.671 17.0304 36.5303C17.1711 36.3897 17.2501 36.1989 17.2501 36V35.151L18.3338 35.874C18.4158 35.9287 18.5077 35.9666 18.6043 35.9858C18.701 36.0049 18.8004 36.0049 18.897 35.9856C18.9936 35.9663 19.0854 35.9281 19.1673 35.8734C19.2492 35.8186 19.3194 35.7482 19.3741 35.6663C19.4288 35.5843 19.4667 35.4924 19.4859 35.3958C19.505 35.2991 19.505 35.1997 19.4857 35.1031C19.4664 35.0065 19.4282 34.9147 19.3735 34.8328C19.3187 34.7509 19.2483 34.6807 19.1663 34.626L17.8501 33.75L19.1641 32.874C19.2462 32.8195 19.3168 32.7494 19.3718 32.6676C19.4268 32.5858 19.4652 32.494 19.4847 32.3974C19.5042 32.3008 19.5045 32.2013 19.4855 32.1046C19.4665 32.0079 19.4287 31.9158 19.3741 31.8337Z" fill="#1C4A2A"/>
</g>
<defs>
<clipPath id="clip0_6643_11227">
<rect width="48" height="48" fill="white"/>
</clipPath>
</defs>
</svg>
