<svg width="48" height="48" viewBox="0 0 48 48" fill="none" xmlns="http://www.w3.org/2000/svg">
<path d="M13.5 6H7.5C6.30653 6 5.16193 6.47411 4.31802 7.31802C3.47411 8.16193 3 9.30653 3 10.5V19.5C3 19.8978 3.15804 20.2794 3.43934 20.5607C3.72064 20.842 4.10218 21 4.5 21H10.5C10.8978 21 11.2794 20.842 11.5607 20.5607C11.842 20.2794 12 19.8978 12 19.5V10.875L13.5 10.5V6Z" fill="#379553"/>
<path d="M9 6H7.5V21H9V6Z" fill="#2C7743"/>
<path d="M35.9998 10.5V42H16.4998C14.4811 41.9451 12.5646 41.1003 11.1622 39.6474C9.75974 38.1945 8.98331 36.2493 8.99977 34.23V6H31.4998C32.6932 6 33.8378 6.47411 34.6818 7.31802C35.5257 8.16193 35.9998 9.30653 35.9998 10.5Z" fill="#DAF1E1"/>
<path d="M42.855 34.5002C43.1065 34.4982 43.3544 34.5595 43.576 34.6784C43.7976 34.7972 43.9857 34.9699 44.1231 35.1805C44.2605 35.3911 44.3428 35.6329 44.3624 35.8836C44.3819 36.1343 44.3381 36.3859 44.235 36.6152C43.7904 37.6375 43.1597 38.5683 42.375 39.3602C41.5383 40.198 40.5445 40.8624 39.4505 41.3154C38.3566 41.7684 37.184 42.0012 36 42.0002H16.5C18.4454 42.0012 20.3388 41.3717 21.8964 40.2062C23.454 39.0407 24.592 37.4019 25.14 35.5352C25.2381 35.2345 25.4287 34.9725 25.6846 34.7866C25.9405 34.6007 26.2487 34.5005 26.565 34.5002H42.855ZM28.5 15.0002C27.5978 15.0839 26.6897 14.925 25.8695 14.54C25.0494 14.1549 24.347 13.5578 23.835 12.8102C23.7083 12.5657 23.5167 12.3607 23.2812 12.2178C23.0457 12.0749 22.7754 11.9997 22.5 12.0002C22.2236 11.9955 21.9512 12.0672 21.713 12.2075C21.4747 12.3478 21.2799 12.5512 21.15 12.7952C20.6422 13.5443 19.9432 14.1438 19.1256 14.5316C18.3079 14.9193 17.4013 15.0811 16.5 15.0002C16.1022 15.0002 15.7206 15.1583 15.4393 15.4396C15.158 15.7209 15 16.1024 15 16.5002V20.2952C15 21.6869 15.3873 23.0511 16.1185 24.2353C16.8496 25.4194 17.8958 26.3768 19.14 27.0002L21.825 28.3352C22.0344 28.4407 22.2656 28.4957 22.5 28.4957C22.7344 28.4957 22.9656 28.4407 23.175 28.3352L25.86 27.0002C27.1042 26.3768 28.1504 25.4194 28.8815 24.2353C29.6127 23.0511 30 21.6869 30 20.2952V16.5002C30 16.1024 29.842 15.7209 29.5607 15.4396C29.2794 15.1583 28.8978 15.0002 28.5 15.0002Z" fill="#379553"/>
</svg>
