<svg width="28" height="29" viewBox="0 0 28 29" fill="none" xmlns="http://www.w3.org/2000/svg">
<path fill-rule="evenodd" clip-rule="evenodd" d="M3.5 12.6524C3.5 8.92192 3.5 7.05667 3.94043 6.42915C4.38087 5.80164 6.13471 5.20129 9.6424 4.0006L10.3107 3.77184C12.1391 3.14595 13.0534 2.83301 14 2.83301C14.9466 2.83301 15.8609 3.14595 17.6893 3.77184L18.3576 4.0006C21.8653 5.20129 23.6191 5.80164 24.0596 6.42915C24.5 7.05667 24.5 8.92192 24.5 12.6524V14.4896C24.5 21.0673 19.5545 24.2594 16.4517 25.6148C15.61 25.9825 15.1891 26.1663 14 26.1663C12.8109 26.1663 12.39 25.9825 11.5483 25.6148C8.44546 24.2594 3.5 21.0673 3.5 14.4896V12.6524ZM14 8.95801C14.4832 8.95801 14.875 9.34976 14.875 9.83301V14.4997C14.875 14.9829 14.4832 15.3747 14 15.3747C13.5168 15.3747 13.125 14.9829 13.125 14.4997V9.83301C13.125 9.34976 13.5168 8.95801 14 8.95801ZM14 19.1663C14.6443 19.1663 15.1667 18.644 15.1667 17.9997C15.1667 17.3553 14.6443 16.833 14 16.833C13.3557 16.833 12.8333 17.3553 12.8333 17.9997C12.8333 18.644 13.3557 19.1663 14 19.1663Z" fill="#64748B"/>
</svg>
