<svg width="48" height="48" viewBox="0 0 48 48" fill="none" xmlns="http://www.w3.org/2000/svg">
<path d="M39 36V39C38.9989 39.3975 38.8404 39.7783 38.5594 40.0594C38.2783 40.3404 37.8975 40.4989 37.5 40.5H10.5C10.1025 40.4989 9.72166 40.3404 9.44061 40.0594C9.15955 39.7783 9.00115 39.3975 9 39V36C9.00421 32.8187 10.2698 29.7689 12.5194 27.5194C14.7689 25.2698 17.8187 24.0042 21 24H27C30.1813 24.0042 33.2311 25.2698 35.4806 27.5194C37.7302 29.7689 38.9958 32.8187 39 36Z" fill="#DAF1E1"/>
<path d="M39 37.545V39C38.9989 39.3975 38.8404 39.7783 38.5594 40.0594C38.2783 40.3404 37.8975 40.4989 37.5 40.5H10.5C10.1025 40.4989 9.72166 40.3404 9.44061 40.0594C9.15955 39.7783 9.00115 39.3975 9 39V36C9.00421 32.8187 10.2698 29.7689 12.5194 27.5194C14.7689 25.2698 17.8187 24.0042 21 24H22.89C24.645 30.825 29.115 36.675 39 37.545Z" fill="#B5E3C3"/>
<path d="M24 22.5C28.1421 22.5 31.5 19.1421 31.5 15C31.5 10.8579 28.1421 7.5 24 7.5C19.8579 7.5 16.5 10.8579 16.5 15C16.5 19.1421 19.8579 22.5 24 22.5Z" fill="#2C7743"/>
<path d="M29.8951 33.93L26.5801 24H21.4201L18.1051 33.93C17.9983 34.2056 17.9726 34.506 18.0311 34.7957C18.0896 35.0855 18.2298 35.3524 18.4351 35.565L23.3701 40.5H24.6151C24.6151 40.5 24.5955 40.5346 29.5651 35.565C29.7664 35.3499 29.9039 35.0831 29.9622 34.7943C30.0205 34.5056 29.9972 34.2063 29.8951 33.93Z" fill="#2C7743"/>
<path d="M29.9698 34.635C29.9554 34.9847 29.811 35.3163 29.5648 35.565C24.6598 40.47 24.6148 40.5 24.6148 40.5H23.3698L18.4348 35.565C18.1573 35.2859 18.001 34.9086 17.9998 34.515C18.0007 34.3154 18.0362 34.1175 18.1048 33.93L21.4198 24H22.8898C23.8154 28.3147 26.3463 32.1164 29.9698 34.635ZM22.4998 22.35C20.8123 22.0052 19.2948 21.0902 18.2022 19.7587C17.1096 18.4273 16.5084 16.7604 16.4996 15.038C16.4908 13.3156 17.0749 11.6427 18.1539 10.3001C19.2328 8.95752 20.7409 8.02709 22.4248 7.66504C21.6704 12.533 21.6957 17.49 22.4998 22.35Z" fill="#29703E"/>
</svg>
